<svg width="525" height="703" viewBox="0 0 525 703" fill="none" xmlns="http://www.w3.org/2000/svg">
<path d="M35 125H490C512.5 107.5 525 80 525 50V25C525 10 515 0 500 0H25C10 0 0 10 0 25V50C0 80 12.5 107.5 35 125Z" fill="#174B2F"/>
<path d="M75 175V350C75 365 85 375 100 375H225V450C225 452.5 225 457.5 227.5 460L285 592.5C290 605 290 620 282.5 632.5C267.5 655 230 657.5 212.5 632.5C205 620 202.5 607.5 207.5 595C217.5 570 222.5 542.5 222.5 515C222.5 500 212.5 490 197.5 490C182.5 490 172.5 500 172.5 515C172.5 535 167.5 557.5 160 577.5C147.5 605 152.5 637.5 170 662.5C187.5 687.5 215 702.5 245 702.5C275 702.5 305 687.5 322.5 660C340 632.5 342.5 602.5 330 572.5L275 445V375H425C440 375 450 365 450 350V175H75Z" fill="#174B2F"/>
</svg>
