<svg width="668" height="668" viewBox="0 0 668 668" fill="none" xmlns="http://www.w3.org/2000/svg">
<path d="M334 667.343C518.093 667.343 667.333 600.187 667.333 517.343C667.333 475.123 628.567 436.973 566.18 409.717C528.11 479.577 470.057 539.793 396.317 571.307C356.68 588.247 311.32 588.247 271.683 571.307C197.943 539.793 139.889 479.577 101.819 409.717C39.4317 436.973 0.666687 475.123 0.666687 517.343C0.666687 600.187 149.905 667.343 334 667.343Z" fill="#174B2F"/>
<path fill-rule="evenodd" clip-rule="evenodd" d="M100.667 217.821C100.667 97.89 205.134 0.666687 334 0.666687C462.867 0.666687 567.333 97.89 567.333 217.821C567.333 336.813 492.86 475.663 376.67 525.32C349.583 536.893 318.417 536.893 291.33 525.32C175.139 475.663 100.667 336.813 100.667 217.821ZM334 300.667C370.82 300.667 400.667 270.82 400.667 234C400.667 197.181 370.82 167.333 334 167.333C297.18 167.333 267.333 197.181 267.333 234C267.333 270.82 297.18 300.667 334 300.667Z" fill="#174B2F"/>
</svg>
